<mxfile host="app.diagrams.net" agent="Mozilla/5.0 (Windows NT 10.0; Win64; x64) AppleWebKit/537.36 (KHTML, like Gecko) Chrome/133.0.0.0 Safari/537.36" version="26.0.16">
  <diagram name="PÃ¡gina-1" id="KKavr-q1zLwodfwtVoXa">
    <mxGraphModel dx="1434" dy="784" grid="1" gridSize="10" guides="1" tooltips="1" connect="1" arrows="1" fold="1" page="1" pageScale="1" pageWidth="827" pageHeight="1169" math="0" shadow="0">
      <root>
        <mxCell id="0" />
        <mxCell id="1" parent="0" />
        <mxCell id="FEdHlu4HxQ5AcnhuIA1y-1" value="Inicio" style="rounded=1;whiteSpace=wrap;html=1;" vertex="1" parent="1">
          <mxGeometry x="341" y="100" width="120" height="60" as="geometry" />
        </mxCell>
        <mxCell id="FEdHlu4HxQ5AcnhuIA1y-7" style="edgeStyle=orthogonalEdgeStyle;rounded=0;orthogonalLoop=1;jettySize=auto;html=1;entryX=0.5;entryY=0;entryDx=0;entryDy=0;" edge="1" parent="1" source="FEdHlu4HxQ5AcnhuIA1y-2" target="FEdHlu4HxQ5AcnhuIA1y-3">
          <mxGeometry relative="1" as="geometry" />
        </mxCell>
        <mxCell id="FEdHlu4HxQ5AcnhuIA1y-2" value="Ano de nascimento" style="shape=manualInput;whiteSpace=wrap;html=1;" vertex="1" parent="1">
          <mxGeometry x="360" y="200" width="80" height="80" as="geometry" />
        </mxCell>
        <mxCell id="FEdHlu4HxQ5AcnhuIA1y-8" style="edgeStyle=orthogonalEdgeStyle;rounded=0;orthogonalLoop=1;jettySize=auto;html=1;" edge="1" parent="1" source="FEdHlu4HxQ5AcnhuIA1y-3" target="FEdHlu4HxQ5AcnhuIA1y-4">
          <mxGeometry relative="1" as="geometry" />
        </mxCell>
        <mxCell id="FEdHlu4HxQ5AcnhuIA1y-3" value="Ano atual - ano de nascimento = idade" style="rounded=0;whiteSpace=wrap;html=1;" vertex="1" parent="1">
          <mxGeometry x="340" y="320" width="120" height="60" as="geometry" />
        </mxCell>
        <mxCell id="FEdHlu4HxQ5AcnhuIA1y-9" style="edgeStyle=orthogonalEdgeStyle;rounded=0;orthogonalLoop=1;jettySize=auto;html=1;entryX=0.5;entryY=0;entryDx=0;entryDy=0;" edge="1" parent="1" source="FEdHlu4HxQ5AcnhuIA1y-4" target="FEdHlu4HxQ5AcnhuIA1y-5">
          <mxGeometry relative="1" as="geometry" />
        </mxCell>
        <mxCell id="FEdHlu4HxQ5AcnhuIA1y-4" value="Idade" style="strokeWidth=1;html=1;shape=mxgraph.flowchart.display;whiteSpace=wrap;" vertex="1" parent="1">
          <mxGeometry x="350" y="430" width="100" height="60" as="geometry" />
        </mxCell>
        <mxCell id="FEdHlu4HxQ5AcnhuIA1y-5" value="Fim" style="rounded=1;whiteSpace=wrap;html=1;" vertex="1" parent="1">
          <mxGeometry x="340" y="520" width="120" height="60" as="geometry" />
        </mxCell>
        <mxCell id="FEdHlu4HxQ5AcnhuIA1y-6" style="edgeStyle=orthogonalEdgeStyle;rounded=0;orthogonalLoop=1;jettySize=auto;html=1;entryX=0.513;entryY=0.175;entryDx=0;entryDy=0;entryPerimeter=0;" edge="1" parent="1" source="FEdHlu4HxQ5AcnhuIA1y-1" target="FEdHlu4HxQ5AcnhuIA1y-2">
          <mxGeometry relative="1" as="geometry" />
        </mxCell>
      </root>
    </mxGraphModel>
  </diagram>
</mxfile>
